<svg viewBox="0 0 1920 1080" xmlns="http://www.w3.org/2000/svg">
  <rect width="1920" height="1080" fill="#fcfdfe"/>

  <rect x="50" y="470" width="280" height="140" rx="20" fill="#dc3545" />
  <text x="190" y="530" font-family="Segoe UI, Arial" font-size="28" text-anchor="middle" fill="white" font-weight="600">Crisis Alert</text>
  <text x="190" y="565" font-family="Segoe UI, Arial" font-size="20" text-anchor="middle" fill="#ffd1d1">Delay &gt; 2 Hours</text>

  <rect x="380" y="470" width="320" height="180" rx="20" fill="white" stroke="#007bff" stroke-width="1.5"/>
  <text x="540" y="530" font-family="Segoe UI, Arial" font-size="28" text-anchor="middle" fill="#007bff" font-weight="600">Fair Grid Search</text>
  <text x="540" y="565" font-family="Segoe UI, Arial" font-size="20" text-anchor="middle" fill="#666">SerpAPI Real-time</text>

  <rect x="750" y="470" width="320" height="140" rx="20" fill="white" stroke="#ffc107" stroke-width="1.5"/>
  <text x="910" y="530" font-family="Segoe UI, Arial" font-size="28" text-anchor="middle" fill="#ffc107" font-weight="600">Budget Logic</text>
  <text x="910" y="565" font-family="Segoe UI, Arial" font-size="20" text-anchor="middle" fill="#666">Cost vs Trip Cap</text>

  <rect x="1120" y="470" width="450" height="180" rx="20" fill="#6f42c1" />
  <text x="1345" y="530" font-family="Segoe UI, Arial" font-size="28" text-anchor="middle" fill="white" font-weight="700">Gemini AI Recovery</text>
  <text x="1345" y="565" font-family="Segoe UI, Arial" font-size="20" text-anchor="middle" fill="#d1d1d1">Safety Comms &amp; Email Drafts</text>

  <rect x="1620" y="470" width="250" height="140" rx="20" fill="white" stroke="#13aa52" stroke-width="2"/>
  <text x="1745" y="530" font-family="Segoe UI, Arial" font-size="26" text-anchor="middle" fill="#13aa52" font-weight="700">MongoDB Update</text>
  <text x="1745" y="565" font-family="Segoe UI, Arial" font-size="18" text-anchor="middle" fill="#666">Itinerary Recovery</text>

  <path d="M330 540 L380 540" stroke="#ccc" stroke-width="1" fill="none" marker-end="url(#arrowhead)"/>
  <path d="M700 540 L750 540" stroke="#ccc" stroke-width="1" fill="none" marker-end="url(#arrowhead)"/>
  <path d="M1070 540 L1120 540" stroke="#ccc" stroke-width="1" fill="none" marker-end="url(#arrowhead)"/>
  <path d="M1570 540 L1620 540" stroke="#ccc" stroke-width="1" fill="none" marker-end="url(#arrowhead)"/>

  <defs>
    <marker id="arrowhead" markerWidth="10" markerHeight="7" refX="9" refY="3.5" orient="auto">
      <polygon points="0 0, 10 3.5, 0 7" fill="#ccc" />
    </marker>
  </defs>
</svg>