<svg viewBox="0 0 1920 1080" xmlns="http://www.w3.org/2000/svg">
  <rect width="1920" height="1080" fill="#fcfdfe"/>

  <rect x="50" y="470" width="280" height="140" rx="20" fill="#007bff" />
  <text x="190" y="540" font-family="Segoe UI, Arial" font-size="28" text-anchor="middle" fill="white" font-weight="600">Receipt Capture</text>

  <rect x="380" y="470" width="350" height="180" rx="20" fill="#6f42c1" />
  <text x="555" y="530" font-family="Segoe UI, Arial" font-size="28" text-anchor="middle" fill="white" font-weight="700">Gemini Vision (Pro)</text>
  <text x="555" y="565" font-family="Segoe UI, Arial" font-size="20" text-anchor="middle" fill="#d1d1d1">Multimodal Extraction</text>

  <rect x="780" y="470" width="350" height="180" rx="20" fill="white" stroke="#13aa52" stroke-width="2"/>
  <text x="955" y="530" font-family="Segoe UI, Arial" font-size="26" text-anchor="middle" fill="#13aa52" font-weight="700">MongoDB Storage</text>
  <text x="955" y="565" font-family="Segoe UI, Arial" font-size="20" text-anchor="middle" fill="#666">PII-Sanitized Data</text>

  <rect x="1180" y="470" width="350" height="140" rx="20" fill="#6f42c1" />
  <text x="1355" y="530" font-family="Segoe UI, Arial" font-size="28" text-anchor="middle" fill="white" font-weight="700">Gemini Synthesis</text>
  <text x="1355" y="565" font-family="Segoe UI, Arial" font-size="20" text-anchor="middle" fill="#d1d1d1">Automated Expense Drafting</text>

  <rect x="1580" y="470" width="290" height="140" rx="20" fill="#343a40" />
  <text x="1725" y="540" font-family="Segoe UI, Arial" font-size="28" text-anchor="middle" fill="white" font-weight="600">Final Report UI</text>

  <path d="M330 540 L380 540" stroke="#ccc" stroke-width="1" fill="none" marker-end="url(#arrowhead)"/>
  <path d="M730 540 L780 540" stroke="#ccc" stroke-width="1" fill="none" marker-end="url(#arrowhead)"/>
  <path d="M1130 540 L1180 540" stroke="#ccc" stroke-width="1" fill="none" marker-end="url(#arrowhead)"/>
  <path d="M1530 540 L1580 540" stroke="#ccc" stroke-width="1" fill="none" marker-end="url(#arrowhead)"/>

  <defs>
    <marker id="arrowhead" markerWidth="10" markerHeight="7" refX="9" refY="3.5" orient="auto">
      <polygon points="0 0, 10 3.5, 0 7" fill="#ccc" />
    </marker>
  </defs>
</svg>