<svg viewBox="0 0 1920 1080" xmlns="http://www.w3.org/2000/svg">
  <rect width="1920" height="1080" fill="#fcfdfe"/>

  <rect x="50" y="470" width="280" height="140" rx="20" fill="#007bff" />
  <text x="190" y="550" font-family="Segoe UI, Arial" font-size="28" text-anchor="middle" fill="white" font-weight="600">Trip Active</text>

  <rect x="380" y="270" width="350" height="200" rx="20" fill="white" stroke="#007bff" stroke-width="1.5"/>
  <text x="555" y="340" font-family="Segoe UI, Arial" font-size="28" text-anchor="middle" fill="#007bff" font-weight="600">Live Status</text>
  <text x="555" y="375" font-family="Segoe UI, Arial" font-size="20" text-anchor="middle" fill="#666">SerpAPI Tracker</text>
  <text x="555" y="410" font-family="Segoe UI, Arial" font-size="18" text-anchor="middle" fill="#999">Polling: 30s intervals</text>

  <rect x="380" y="610" width="350" height="200" rx="20" fill="white" stroke="#28a745" stroke-width="1.5"/>
  <text x="555" y="680" font-family="Segoe UI, Arial" font-size="28" text-anchor="middle" fill="#28a745" font-weight="600">Local Context</text>
  <text x="555" y="715" font-family="Segoe UI, Arial" font-size="20" text-anchor="middle" fill="#666">OpenWeatherMap API</text>
  <text x="555" y="750" font-family="Segoe UI, Arial" font-size="18" text-anchor="middle" fill="#999">Geocoding &amp; Transport</text>

  <rect x="780" y="470" width="450" height="140" rx="20" fill="#6f42c1" />
  <text x="1005" y="530" font-family="Segoe UI, Arial" font-size="28" text-anchor="middle" fill="white" font-weight="700">ElevenLabs Mascot Voice</text>
  <text x="1005" y="565" font-family="Segoe UI, Arial" font-size="20" text-anchor="middle" fill="#d1d1d1">Contextual Proactive TTS</text>

  <rect x="1280" y="470" width="300" height="140" rx="20" fill="white" stroke="#13aa52" stroke-width="2"/>
  <text x="1430" y="530" font-family="Segoe UI, Arial" font-size="26" text-anchor="middle" fill="#13aa52" font-weight="700">MongoDB Logging</text>
  <text x="1430" y="565" font-family="Segoe UI, Arial" font-size="18" text-anchor="middle" fill="#666">Interaction Histories</text>

  <rect x="1630" y="470" width="240" height="140" rx="20" fill="#343a40" />
  <text x="1750" y="550" font-family="Segoe UI, Arial" font-size="28" text-anchor="middle" fill="white" font-weight="600">Live Dashboard</text>

  <path d="M330 520 L355 520 L355 370 L380 370" stroke="#ccc" stroke-width="1" fill="none" marker-end="url(#arrowhead)"/>
  <path d="M330 560 L355 560 L355 710 L380 710" stroke="#ccc" stroke-width="1" fill="none" marker-end="url(#arrowhead)"/>
  <path d="M730 370 L755 370 L755 520 L780 520" stroke="#ccc" stroke-width="1" fill="none" marker-end="url(#arrowhead)"/>
  <path d="M730 710 L755 710 L755 560 L780 560" stroke="#ccc" stroke-width="1" fill="none" marker-end="url(#arrowhead)"/>
  <path d="M1230 540 L1280 540" stroke="#ccc" stroke-width="1" fill="none" marker-end="url(#arrowhead)"/>
  <path d="M1580 540 L1630 540" stroke="#ccc" stroke-width="1" fill="none" marker-end="url(#arrowhead)"/>

  <defs>
    <marker id="arrowhead" markerWidth="10" markerHeight="7" refX="9" refY="3.5" orient="auto">
      <polygon points="0 0, 10 3.5, 0 7" fill="#ccc" />
    </marker>
  </defs>
</svg>